# xmcd
#
# Track frame offsets: 
#        150
#        16686
#        35302
#        52073
#        75031
#
# Disc length: 1163 seconds
#
# Revision: 1
# Processed by: cddbd v1.5.1PL2 Copyright (c) Steve Scherf et al.
# Submitted via: ExactAudioCopy v0.95b3
#
DISCID=27048905
DTITLE=Gretchen Wilson - 5-mo-fo-ya
DYEAR=2005
DGENRE=Country
TTITLE0=Homewrecker (Live)
TTITLE1=Redneck Woman (Live)
TTITLE2=Here For The Party (Live)
TTITLE3=Salt On Your Glass
TTITLE4=Our America
EXTD=Gretchen Wilson - 5-mo-fo-ya Bonus CD
EXTT0=
EXTT1=
EXTT2=
EXTT3=
EXTT4=
PLAYORDER=
